# xmcd
#
# Track frame offsets:
#	150
#	15541
#	32413
#	50788
#	65284
#	80650
#	95806
#	114048
#	128226
#	143617
#	156737
#	173513
#
# Disc length: 2536 seconds
#
# Revision: 0
# Processed by: cddbd v1.5.2PL0 Copyright (c) Steve Scherf et al.
# Submitted via: audiograbber 1.83.01
#
DISCID=9909e60c
DTITLE=Darryl Worly - I Miss My Friend
DYEAR=2002
DGENRE=Country
TTITLE0=Tennessee River Run
TTITLE1=I Wouldn't Mind The Shackles
TTITLE2=I Miss My Friend
TTITLE3=Callin' Caroline
TTITLE4=Family Tree
TTITLE5=Back Where I Belong
TTITLE6=The Least That You Can Do
TTITLE7=I Built This Wall
TTITLE8=Opportunity Of A Lifetime
TTITLE9=Spread A Little Love Around
TTITLE10=Pow 369
TTITLE11=Where You Think You're Goin'?
EXTD=
EXTT0=
EXTT1=
EXTT2=
EXTT3=
EXTT4=
EXTT5=
EXTT6=
EXTT7=
EXTT8=
EXTT9=
EXTT10=
EXTT11=
PLAYORDER=
